<?xml version="1.0" standalone="no"?>
<!DOCTYPE svg PUBLIC "-//W3C//DTD SVG 1.0//EN" "http://www.w3.org/TR/2001/REC-SVG-20010904/DTD/svg10.dtd">
<svg xmlns="http://www.w3.org/2000/svg" xmlns:xlink="http://www.w3.org/1999/xlink" id="body_1" width="52" height="35">

<g transform="matrix(0.15950921 0 0 0.15950921 -0 0.19325182)">
    <path d="M0 0L326 0L326 217L0 217z" stroke="none" fill="#FFFFFF" fill-rule="nonzero" />
    <path d="M0 0L326 0L326 73L0 73z" stroke="none" fill="#FFCE00" fill-rule="nonzero" />
    <path d="M0 144L326 144L326 217L0 217z" stroke="none" fill="#009431" fill-rule="nonzero" />
    <path d="M0 182L326 182L326 217L0 217z" stroke="none" fill="#000000" fill-rule="nonzero" />
    <path d="M0 0L326 0L326 35L0 35z" stroke="none" fill="#FF0000" fill-rule="nonzero" />
    <path d="M163 76C 160.9289 76 159.25 77.6789 159.25 79.75C 159.25 81.8211 160.9289 83.5 163 83.5C 165.0711 83.5 166.75 81.8211 166.75 79.75C 166.75 77.6789 165.0711 76 163 76zM146.469 79.25C 148.8461 86.0933 155.34749 91 163 91C 170.65251 91 177.154 86.0933 179.531 79.25C 175.12491 83.1355 169.336 85.5 163 85.5C 156.664 85.5 150.875 83.1355 146.469 79.25zM145.50024 92.25C 143.42914 92.25 141.75024 93.9289 141.75024 96C 141.75024 98.0711 143.42914 99.75 145.50024 99.75C 147.57135 99.75 149.25024 98.0711 149.25024 96C 149.25024 93.9289 147.57135 92.25 145.50024 92.25zM163.00024 92.25C 160.92914 92.25 159.25024 93.9289 159.25024 96C 159.25024 98.0711 160.92914 99.75 163.00024 99.75C 165.07135 99.75 166.75024 98.0711 166.75024 96C 166.75024 93.9289 165.07135 92.25 163.00024 92.25zM180.50024 92.25C 178.42914 92.25 176.75024 93.9289 176.75024 96C 176.75024 98.0711 178.42914 99.75 180.50024 99.75C 182.57135 99.75 184.25024 98.0711 184.25024 96C 184.25024 93.9289 182.57135 92.25 180.50024 92.25z" stroke="none" fill="#FF6331" fill-rule="nonzero" />
    <path d="M142.5 104L142.5 127L152.5 127L159.5 127L159.5 133L143.5 133L143.5 141L159.5 141L167.5 141L168.5 141L168.5 127L173.5 127L173.5 141L183.5 141L183.5 118L168.5 118L168.5 112L183.5 112L183.5 104L168.5 104L159.5 104L159.5 112L159.5 118L152.5 118L152.5 104L142.5 104z" stroke="none" fill="#FF6331" fill-rule="nonzero" />
</g>
</svg>